<svg width="720" height="720" viewBox="0 0 720 720" fill="none" xmlns="http://www.w3.org/2000/svg">
<g clip-path="url(#clip0_118_3)">
<rect width="720" height="720" fill="#362626"/>
<rect width="2634" height="1440" fill="#7C0404"/>
<g filter="url(#filter0_d_118_3)">
<path d="M133.863 361.08C133.703 361.4 133.423 361.8 133.023 362.28C132.703 362.76 132.143 363 131.343 363H129.663C128.703 363 128.063 362.72 127.743 362.16C127.423 361.6 127.183 361.16 127.023 360.84L114.303 317.76C114.143 317.36 114.183 316.72 114.423 315.84C114.663 314.96 115.383 314.52 116.583 314.52H117.663C118.543 314.52 119.143 314.8 119.463 315.36C119.783 315.92 120.023 316.36 120.183 316.68L130.503 350.88L140.703 316.68C140.863 316.36 141.103 315.92 141.423 315.36C141.743 314.8 142.343 314.52 143.223 314.52H144.423C145.543 314.52 146.223 314.96 146.463 315.84C146.703 316.72 146.743 317.36 146.583 317.76L133.863 361.08ZM201.034 363C200.234 363 199.594 362.76 199.114 362.28C198.714 361.72 198.514 361.08 198.514 360.36V317.28C198.514 316.64 198.714 316.04 199.114 315.48C199.514 314.84 200.154 314.52 201.034 314.52H220.234C221.034 314.52 221.634 314.8 222.034 315.36C222.514 315.84 222.754 316.44 222.754 317.16V318C222.754 318.88 222.474 319.56 221.914 320.04C221.354 320.44 220.794 320.64 220.234 320.64H204.394V335.28H218.674C219.234 335.28 219.794 335.52 220.354 336C220.914 336.4 221.194 337.04 221.194 337.92V338.76C221.194 339.48 220.954 340.12 220.474 340.68C220.074 341.16 219.474 341.4 218.674 341.4H204.394V356.88H220.234C221.034 356.88 221.634 357.16 222.034 357.72C222.514 358.2 222.754 358.8 222.754 359.52V360.36C222.754 361.24 222.474 361.92 221.914 362.4C221.354 362.8 220.794 363 220.234 363H201.034ZM301.272 363C300.152 363 299.312 362.48 298.752 361.44L291.312 344.4H282.312V360.36C282.312 361.24 281.992 361.92 281.352 362.4C280.792 362.8 280.192 363 279.552 363H278.832C278.272 363 277.672 362.84 277.032 362.52C276.392 362.12 276.072 361.4 276.072 360.36V317.16C276.072 316.28 276.352 315.64 276.912 315.24C277.472 314.76 278.112 314.52 278.832 314.52H293.232C296.592 314.52 299.232 315.56 301.152 317.64C303.072 319.64 304.032 322.44 304.032 326.04V332.76C304.032 338.2 301.832 341.8 297.432 343.56L304.632 359.4C304.872 359.88 304.952 360.6 304.872 361.56C304.792 362.52 304.032 363 302.592 363H301.272ZM298.032 326.04C298.032 322.36 296.432 320.52 293.232 320.52H282.312V338.16H293.232C296.432 338.16 298.032 336.36 298.032 332.76V326.04ZM359.203 363C358.323 363 357.683 362.68 357.283 362.04C356.963 361.4 356.803 360.8 356.803 360.24V317.28C356.803 316.64 356.963 316.04 357.283 315.48C357.683 314.84 358.323 314.52 359.203 314.52H360.163C361.843 314.52 362.683 315.44 362.683 317.28V360.24C362.683 362.08 361.843 363 360.163 363H359.203ZM430.397 320.64V360.36C430.397 360.92 430.157 361.52 429.677 362.16C429.277 362.72 428.637 363 427.757 363H427.037C426.157 363 425.477 362.72 424.997 362.16C424.597 361.52 424.397 360.92 424.397 360.36V320.64H415.877C415.397 320.64 414.837 320.44 414.197 320.04C413.557 319.64 413.237 318.96 413.237 318V317.16C413.237 316.28 413.517 315.64 414.077 315.24C414.637 314.76 415.237 314.52 415.877 314.52H438.917C439.797 314.52 440.437 314.8 440.837 315.36C441.237 315.92 441.437 316.52 441.437 317.16V318C441.437 318.72 441.197 319.36 440.717 319.92C440.317 320.4 439.717 320.64 438.917 320.64H430.397ZM520.852 363C520.052 363 519.452 362.72 519.052 362.16C518.652 361.6 518.372 361.12 518.212 360.72L514.852 350.52H499.012L495.412 360.96C495.252 361.52 494.932 362 494.452 362.4C493.972 362.8 493.412 363 492.772 363H491.932C490.892 363 490.172 362.6 489.772 361.8C489.372 361 489.292 360.28 489.532 359.64L503.452 316.68C503.612 316.36 503.852 315.92 504.172 315.36C504.572 314.8 505.212 314.52 506.092 314.52H507.652C509.012 314.52 509.932 315.2 510.412 316.56L524.332 359.64C524.572 360.28 524.492 361 524.092 361.8C523.692 362.6 522.972 363 521.932 363H520.852ZM506.812 325.44C506.412 326.88 505.932 328.48 505.372 330.24C504.892 332 504.372 333.72 503.812 335.4C503.332 337.08 502.852 338.68 502.372 340.2C501.892 341.72 501.492 343 501.172 344.04H512.692L506.812 325.44ZM585.449 363C582.089 363 579.449 362 577.529 360C575.609 357.92 574.649 355.08 574.649 351.48V348.72C574.649 347.92 574.849 347.28 575.249 346.8C575.729 346.24 576.369 345.96 577.169 345.96H578.249C579.129 345.96 579.769 346.28 580.169 346.92C580.569 347.48 580.769 348.08 580.769 348.72V351.36C580.769 355.04 582.329 356.88 585.449 356.88H593.249C596.369 356.88 597.929 355.04 597.929 351.36V348C597.929 345.28 595.729 343.36 591.329 342.24C589.729 341.92 587.969 341.52 586.049 341.04C584.129 340.56 582.329 339.88 580.649 339C578.969 338.12 577.529 337 576.329 335.64C575.209 334.2 574.649 332.36 574.649 330.12V326.04C574.649 322.6 575.609 319.84 577.529 317.76C579.449 315.6 582.089 314.52 585.449 314.52H593.249C596.609 314.52 599.209 315.6 601.049 317.76C602.969 319.84 603.929 322.6 603.929 326.04V327.96C603.929 328.6 603.729 329.24 603.329 329.88C602.929 330.52 602.289 330.84 601.409 330.84H600.569C598.809 330.84 597.929 329.88 597.929 327.96V326.04C597.929 322.44 596.369 320.64 593.249 320.64H585.449C582.329 320.64 580.769 322.44 580.769 326.04V330C580.769 330.88 581.209 331.8 582.089 332.76C582.969 333.72 584.689 334.48 587.249 335.04C589.089 335.44 590.889 335.88 592.649 336.36C594.409 336.76 596.169 337.4 597.929 338.28C599.609 339.16 601.009 340.36 602.129 341.88C603.329 343.4 603.929 345.36 603.929 347.76V351.48C603.929 355.08 602.969 357.92 601.049 360C599.209 362 596.609 363 593.249 363H585.449Z" fill="#FFDDDD"/>
</g>
<g filter="url(#filter1_d_118_3)">
<path d="M432.593 560H431.972C431.696 560 431.489 559.908 431.351 559.724C431.213 559.54 431.098 559.31 431.006 559.034L428.936 552.548H419L416.792 559.172C416.562 559.724 416.24 560 415.826 560H415.343C415.021 560 414.768 559.862 414.584 559.586C414.446 559.31 414.423 559.034 414.515 558.758L422.519 533.09L422.726 532.676C422.772 532.63 422.795 532.607 422.795 532.607C422.795 532.561 422.818 532.515 422.864 532.469C423.048 532.239 423.255 532.124 423.485 532.124H424.382C424.842 532.124 425.187 532.4 425.417 532.952L433.421 558.758C433.513 559.034 433.467 559.31 433.283 559.586C433.145 559.862 432.915 560 432.593 560ZM423.899 535.85C423.163 538.656 422.427 541.278 421.691 543.716C421.001 546.154 420.403 548.201 419.897 549.857H428.039L423.899 535.85ZM480.432 560H480.018C479.65 560 479.328 559.793 479.052 559.379L467.598 537.782V559.034C467.598 559.264 467.506 559.494 467.322 559.724C467.184 559.908 466.954 560 466.632 560H466.149C465.505 560 465.183 559.678 465.183 559.034V533.159C465.183 532.469 465.505 532.124 466.149 532.124H466.632C467.092 532.124 467.322 532.262 467.322 532.538L479.052 554.204V533.159C479.052 532.929 479.098 532.699 479.19 532.469C479.328 532.239 479.558 532.124 479.88 532.124H480.432C480.754 532.124 480.984 532.239 481.122 532.469C481.26 532.699 481.329 532.929 481.329 533.159V559.034C481.329 559.264 481.26 559.494 481.122 559.724C480.984 559.908 480.754 560 480.432 560ZM527.086 534.608H521.635V559.034C521.635 559.264 521.543 559.494 521.359 559.724C521.221 559.908 520.991 560 520.669 560H520.255C519.933 560 519.703 559.908 519.565 559.724C519.427 559.494 519.358 559.264 519.358 559.034V534.608H513.838C513.608 534.608 513.401 534.539 513.217 534.401C513.033 534.263 512.941 534.01 512.941 533.642V533.09C512.941 532.446 513.24 532.124 513.838 532.124H527.086C527.684 532.124 527.983 532.446 527.983 533.09V533.642C527.983 534.286 527.684 534.608 527.086 534.608ZM560.26 560H559.708C559.478 560 559.294 559.885 559.156 559.655C559.018 559.425 558.949 559.195 558.949 558.965V533.159C558.949 532.469 559.202 532.124 559.708 532.124H560.26C560.858 532.124 561.157 532.469 561.157 533.159V558.965C561.157 559.655 560.858 560 560.26 560ZM455.128 616H445.882C445.33 616 445.054 615.678 445.054 615.034V589.159C445.054 588.469 445.33 588.124 445.882 588.124H455.128C456.876 588.124 458.233 588.699 459.199 589.849C460.211 590.999 460.717 592.54 460.717 594.472V609.652C460.717 611.722 460.234 613.309 459.268 614.413C458.302 615.471 456.922 616 455.128 616ZM458.44 594.472C458.44 591.896 457.336 590.608 455.128 590.608H447.4V613.516H455.128C457.336 613.516 458.44 612.205 458.44 609.583V594.472ZM480.042 616H479.49C479.26 616 479.076 615.885 478.938 615.655C478.8 615.425 478.731 615.195 478.731 614.965V589.159C478.731 588.469 478.984 588.124 479.49 588.124H480.042C480.64 588.124 480.939 588.469 480.939 589.159V614.965C480.939 615.655 480.64 616 480.042 616ZM508.214 616H503.729C501.935 616 500.555 615.471 499.589 614.413C498.623 613.309 498.14 611.722 498.14 609.652V608.065C498.14 607.329 498.416 606.961 498.968 606.961H499.589C500.187 606.961 500.486 607.329 500.486 608.065V609.583C500.486 612.205 501.567 613.516 503.729 613.516H508.214C510.422 613.516 511.526 612.205 511.526 609.583V607.651C511.526 606.639 511.135 605.788 510.353 605.098C509.571 604.408 508.536 603.902 507.248 603.58C506.236 603.35 505.224 603.12 504.212 602.89C503.2 602.614 502.234 602.223 501.314 601.717C500.394 601.211 499.635 600.59 499.037 599.854C498.439 599.072 498.14 598.083 498.14 596.887V594.472C498.14 592.54 498.623 590.999 499.589 589.849C500.601 588.699 501.981 588.124 503.729 588.124H508.214C509.962 588.124 511.319 588.699 512.285 589.849C513.297 590.999 513.803 592.54 513.803 594.472V595.576C513.803 596.358 513.504 596.749 512.906 596.749H512.423C511.825 596.749 511.526 596.358 511.526 595.576V594.472C511.526 591.896 510.422 590.608 508.214 590.608H503.729C501.567 590.608 500.486 591.896 500.486 594.472V596.818C500.486 597.6 500.785 598.313 501.383 598.957C501.981 599.555 503.062 600.038 504.626 600.406C505.684 600.636 506.696 600.889 507.662 601.165C508.674 601.395 509.663 601.786 510.629 602.338C511.549 602.844 512.308 603.511 512.906 604.339C513.504 605.121 513.803 606.179 513.803 607.513V609.652C513.803 611.722 513.32 613.309 512.354 614.413C511.388 615.471 510.008 616 508.214 616ZM532.207 616H531.655C531.425 616 531.241 615.885 531.103 615.655C530.965 615.425 530.896 615.195 530.896 614.965V589.159C530.896 588.469 531.149 588.124 531.655 588.124H532.207C532.805 588.124 533.104 588.469 533.104 589.159V614.965C533.104 615.655 532.805 616 532.207 616ZM566.175 616H565.761C565.393 616 565.071 615.793 564.795 615.379L553.341 593.782V615.034C553.341 615.264 553.249 615.494 553.065 615.724C552.927 615.908 552.697 616 552.375 616H551.892C551.248 616 550.926 615.678 550.926 615.034V589.159C550.926 588.469 551.248 588.124 551.892 588.124H552.375C552.835 588.124 553.065 588.262 553.065 588.538L564.795 610.204V589.159C564.795 588.929 564.841 588.699 564.933 588.469C565.071 588.239 565.301 588.124 565.623 588.124H566.175C566.497 588.124 566.727 588.239 566.865 588.469C567.003 588.699 567.072 588.929 567.072 589.159V615.034C567.072 615.264 567.003 615.494 566.865 615.724C566.727 615.908 566.497 616 566.175 616ZM597.166 590.608H587.506V600.958H596.2C596.384 600.958 596.568 601.05 596.752 601.234C596.982 601.372 597.097 601.579 597.097 601.855V602.338C597.097 602.752 596.982 603.028 596.752 603.166C596.568 603.304 596.384 603.373 596.2 603.373H587.506V615.034C587.506 615.264 587.437 615.494 587.299 615.724C587.161 615.908 586.931 616 586.609 616H586.126C585.528 616 585.229 615.678 585.229 615.034V589.159C585.229 588.883 585.298 588.653 585.436 588.469C585.574 588.239 585.804 588.124 586.126 588.124H597.166C597.764 588.124 598.063 588.446 598.063 589.09V589.642C598.063 589.964 597.948 590.217 597.718 590.401C597.534 590.539 597.35 590.608 597.166 590.608ZM625.154 616H620.462C618.714 616 617.357 615.471 616.391 614.413C615.425 613.309 614.942 611.722 614.942 609.652V594.472C614.942 592.54 615.425 590.999 616.391 589.849C617.357 588.699 618.714 588.124 620.462 588.124H625.154C626.902 588.124 628.282 588.699 629.294 589.849C630.306 590.999 630.812 592.54 630.812 594.472V609.652C630.812 611.722 630.306 613.309 629.294 614.413C628.328 615.471 626.948 616 625.154 616ZM628.466 594.472C628.466 591.896 627.362 590.608 625.154 590.608H620.462C618.3 590.608 617.219 591.896 617.219 594.472V609.583C617.219 612.205 618.3 613.516 620.462 613.516H625.154C627.362 613.516 628.466 612.205 628.466 609.583V594.472ZM502.901 661.788H495.932V671.034C495.932 671.264 495.863 671.494 495.725 671.724C495.587 671.908 495.357 672 495.035 672H494.483C493.885 672 493.586 671.678 493.586 671.034V645.159C493.586 644.469 493.885 644.124 494.483 644.124H502.901C504.649 644.124 506.006 644.699 506.972 645.849C507.938 646.953 508.421 648.494 508.421 650.472V655.44C508.421 657.372 507.938 658.913 506.972 660.063C506.006 661.213 504.649 661.788 502.901 661.788ZM506.213 650.472C506.213 647.896 505.109 646.608 502.901 646.608H495.932V659.235H502.901C503.959 659.235 504.764 658.936 505.316 658.338C505.914 657.694 506.213 656.705 506.213 655.371V650.472ZM537.175 672H536.416C535.956 672 535.657 671.816 535.519 671.448L531.103 660.822H524.962V671.034C524.962 671.678 524.617 672 523.927 672H523.513C523.283 672 523.053 671.954 522.823 671.862C522.639 671.724 522.547 671.448 522.547 671.034V645.09C522.547 644.446 522.869 644.124 523.513 644.124H531.793C533.587 644.124 534.967 644.676 535.933 645.78C536.945 646.838 537.451 648.402 537.451 650.472V654.474C537.451 655.992 537.129 657.257 536.485 658.269C535.887 659.235 534.875 660.04 533.449 660.684L537.796 670.689C537.842 670.873 537.865 671.149 537.865 671.517C537.911 671.839 537.681 672 537.175 672ZM535.174 650.472C535.174 647.85 534.047 646.539 531.793 646.539H524.962V658.338H531.793C534.047 658.338 535.174 657.05 535.174 654.474V650.472ZM561.723 672H557.031C555.283 672 553.926 671.471 552.96 670.413C551.994 669.309 551.511 667.722 551.511 665.652V650.472C551.511 648.54 551.994 646.999 552.96 645.849C553.926 644.699 555.283 644.124 557.031 644.124H561.723C563.471 644.124 564.851 644.699 565.863 645.849C566.875 646.999 567.381 648.54 567.381 650.472V665.652C567.381 667.722 566.875 669.309 565.863 670.413C564.897 671.471 563.517 672 561.723 672ZM565.035 650.472C565.035 647.896 563.931 646.608 561.723 646.608H557.031C554.869 646.608 553.788 647.896 553.788 650.472V665.583C553.788 668.205 554.869 669.516 557.031 669.516H561.723C563.931 669.516 565.035 668.205 565.035 665.583V650.472ZM589.563 672H585.906C584.158 672 582.801 671.471 581.835 670.413C580.915 669.309 580.455 667.722 580.455 665.652V662.34C580.455 662.11 580.524 661.903 580.662 661.719C580.8 661.489 580.984 661.374 581.214 661.374H581.766C582.364 661.374 582.663 661.696 582.663 662.34V665.583C582.663 668.205 583.744 669.516 585.906 669.516H589.563C591.817 669.516 592.944 668.205 592.944 665.583V645.159C592.944 644.929 592.99 644.699 593.082 644.469C593.22 644.239 593.45 644.124 593.772 644.124H594.324C594.922 644.124 595.221 644.446 595.221 645.09V665.652C595.221 667.722 594.715 669.309 593.703 670.413C592.737 671.471 591.357 672 589.563 672ZM621.798 672H610.758C610.206 672 609.93 671.678 609.93 671.034V645.159C609.93 644.469 610.206 644.124 610.758 644.124H621.798C622.396 644.124 622.695 644.446 622.695 645.09V645.642C622.695 645.964 622.58 646.217 622.35 646.401C622.166 646.539 621.982 646.608 621.798 646.608H612.138V656.544H620.901C621.085 656.544 621.269 656.636 621.453 656.82C621.683 656.958 621.798 657.211 621.798 657.579V658.062C621.798 658.706 621.499 659.028 620.901 659.028H612.138V669.516H621.798C622.396 669.516 622.695 669.838 622.695 670.482V671.034C622.695 671.356 622.58 671.609 622.35 671.793C622.166 671.931 621.982 672 621.798 672ZM647.419 672H642.52C640.726 672 639.346 671.471 638.38 670.413C637.414 669.309 636.931 667.722 636.931 665.652V650.472C636.931 648.54 637.414 646.999 638.38 645.849C639.392 644.699 640.772 644.124 642.52 644.124H647.419C649.167 644.124 650.524 644.699 651.49 645.849C652.502 646.999 653.008 648.54 653.008 650.472V652.335C653.008 652.657 652.939 652.933 652.801 653.163C652.663 653.393 652.433 653.508 652.111 653.508H651.628C651.03 653.508 650.731 653.117 650.731 652.335V650.472C650.731 647.896 649.627 646.608 647.419 646.608H642.52C640.358 646.608 639.277 647.896 639.277 650.472V665.583C639.277 668.205 640.358 669.516 642.52 669.516H647.419C649.627 669.516 650.731 668.205 650.731 665.583V663.72C650.731 663.03 651.03 662.685 651.628 662.685H652.111C652.387 662.685 652.594 662.8 652.732 663.03C652.916 663.26 653.008 663.49 653.008 663.72V665.652C653.008 667.722 652.525 669.309 651.559 670.413C650.593 671.471 649.213 672 647.419 672ZM679.738 646.608H674.287V671.034C674.287 671.264 674.195 671.494 674.011 671.724C673.873 671.908 673.643 672 673.321 672H672.907C672.585 672 672.355 671.908 672.217 671.724C672.079 671.494 672.01 671.264 672.01 671.034V646.608H666.49C666.26 646.608 666.053 646.539 665.869 646.401C665.685 646.263 665.593 646.01 665.593 645.642V645.09C665.593 644.446 665.892 644.124 666.49 644.124H679.738C680.336 644.124 680.635 644.446 680.635 645.09V645.642C680.635 646.286 680.336 646.608 679.738 646.608Z" fill="#FFDDDD"/>
</g>
</g>
<defs>
<filter id="filter0_d_118_3" x="114.063" y="314.52" width="493.866" height="52.48" filterUnits="userSpaceOnUse" color-interpolation-filters="sRGB">
<feFlood flood-opacity="0" result="BackgroundImageFix"/>
<feColorMatrix in="SourceAlpha" type="matrix" values="0 0 0 0 0 0 0 0 0 0 0 0 0 0 0 0 0 0 127 0" result="hardAlpha"/>
<feOffset dx="2" dy="2"/>
<feGaussianBlur stdDeviation="1"/>
<feComposite in2="hardAlpha" operator="out"/>
<feColorMatrix type="matrix" values="0 0 0 0 0 0 0 0 0 0 0 0 0 0 0 0 0 0 1 0"/>
<feBlend mode="normal" in2="BackgroundImageFix" result="effect1_dropShadow_118_3"/>
<feBlend mode="normal" in="SourceGraphic" in2="effect1_dropShadow_118_3" result="shape"/>
</filter>
<filter id="filter1_d_118_3" x="414.377" y="532.124" width="270.258" height="143.876" filterUnits="userSpaceOnUse" color-interpolation-filters="sRGB">
<feFlood flood-opacity="0" result="BackgroundImageFix"/>
<feColorMatrix in="SourceAlpha" type="matrix" values="0 0 0 0 0 0 0 0 0 0 0 0 0 0 0 0 0 0 127 0" result="hardAlpha"/>
<feOffset dx="2" dy="2"/>
<feGaussianBlur stdDeviation="1"/>
<feComposite in2="hardAlpha" operator="out"/>
<feColorMatrix type="matrix" values="0 0 0 0 0 0 0 0 0 0 0 0 0 0 0 0 0 0 1 0"/>
<feBlend mode="normal" in2="BackgroundImageFix" result="effect1_dropShadow_118_3"/>
<feBlend mode="normal" in="SourceGraphic" in2="effect1_dropShadow_118_3" result="shape"/>
</filter>
<clipPath id="clip0_118_3">
<rect width="720" height="720" fill="white"/>
</clipPath>
</defs>
</svg>
