<svg width="720" height="720" viewBox="0 0 720 720" fill="none" xmlns="http://www.w3.org/2000/svg">
<rect width="720" height="720" fill="#7C0404"/>
<g filter="url(#filter0_d_118_3)">
<path d="M33.9856 371.232C33.7549 371.693 33.3512 372.27 32.7746 372.962C32.3132 373.654 31.5059 374 30.3526 374H27.9306C26.5466 374 25.6239 373.596 25.1626 372.789C24.7012 371.982 24.3552 371.347 24.1246 370.886L5.78655 308.779C5.55589 308.202 5.61355 307.28 5.95955 306.011C6.30555 304.742 7.34355 304.108 9.07355 304.108H10.6306C11.8992 304.108 12.7642 304.512 13.2256 305.319C13.6869 306.126 14.0329 306.761 14.2636 307.222L29.1416 356.527L43.8466 307.222C44.0772 306.761 44.4232 306.126 44.8846 305.319C45.3459 304.512 46.2109 304.108 47.4796 304.108H49.2096C50.8242 304.108 51.8046 304.742 52.1506 306.011C52.4966 307.28 52.5542 308.202 52.3236 308.779L33.9856 371.232ZM130.824 374C129.67 374 128.748 373.654 128.056 372.962C127.479 372.155 127.191 371.232 127.191 370.194V308.087C127.191 307.164 127.479 306.299 128.056 305.492C128.632 304.569 129.555 304.108 130.824 304.108H158.504C159.657 304.108 160.522 304.512 161.099 305.319C161.791 306.011 162.137 306.876 162.137 307.914V309.125C162.137 310.394 161.733 311.374 160.926 312.066C160.118 312.643 159.311 312.931 158.504 312.931H135.668V334.037H156.255C157.062 334.037 157.869 334.383 158.677 335.075C159.484 335.652 159.888 336.574 159.888 337.843V339.054C159.888 340.092 159.542 341.015 158.85 341.822C158.273 342.514 157.408 342.86 156.255 342.86H135.668V365.177H158.504C159.657 365.177 160.522 365.581 161.099 366.388C161.791 367.08 162.137 367.945 162.137 368.983V370.194C162.137 371.463 161.733 372.443 160.926 373.135C160.118 373.712 159.311 374 158.504 374H130.824ZM275.334 374C273.719 374 272.508 373.25 271.701 371.751L260.975 347.185H248V370.194C248 371.463 247.539 372.443 246.616 373.135C245.809 373.712 244.944 374 244.021 374H242.983C242.176 374 241.311 373.769 240.388 373.308C239.465 372.731 239.004 371.693 239.004 370.194V307.914C239.004 306.645 239.408 305.723 240.215 305.146C241.022 304.454 241.945 304.108 242.983 304.108H263.743C268.587 304.108 272.393 305.607 275.161 308.606C277.929 311.489 279.313 315.526 279.313 320.716V330.404C279.313 338.247 276.141 343.437 269.798 345.974L280.178 368.81C280.524 369.502 280.639 370.54 280.524 371.924C280.409 373.308 279.313 374 277.237 374H275.334ZM270.663 320.716C270.663 315.411 268.356 312.758 263.743 312.758H248V338.189H263.743C268.356 338.189 270.663 335.594 270.663 330.404V320.716ZM358.851 374C357.583 374 356.66 373.539 356.083 372.616C355.622 371.693 355.391 370.828 355.391 370.021V308.087C355.391 307.164 355.622 306.299 356.083 305.492C356.66 304.569 357.583 304.108 358.851 304.108H360.235C362.657 304.108 363.868 305.434 363.868 308.087V370.021C363.868 372.674 362.657 374 360.235 374H358.851ZM461.489 312.931V370.194C461.489 371.001 461.143 371.866 460.451 372.789C459.874 373.596 458.951 374 457.683 374H456.645C455.376 374 454.396 373.596 453.704 372.789C453.127 371.866 452.839 371.001 452.839 370.194V312.931H440.556C439.864 312.931 439.056 312.643 438.134 312.066C437.211 311.489 436.75 310.509 436.75 309.125V307.914C436.75 306.645 437.153 305.723 437.961 305.146C438.768 304.454 439.633 304.108 440.556 304.108H473.772C475.04 304.108 475.963 304.512 476.54 305.319C477.116 306.126 477.405 306.991 477.405 307.914V309.125C477.405 310.163 477.059 311.086 476.367 311.893C475.79 312.585 474.925 312.931 473.772 312.931H461.489ZM591.894 374C590.741 374 589.876 373.596 589.299 372.789C588.723 371.982 588.319 371.29 588.088 370.713L583.244 356.008H560.408L555.218 371.059C554.988 371.866 554.526 372.558 553.834 373.135C553.142 373.712 552.335 374 551.412 374H550.201C548.702 374 547.664 373.423 547.087 372.27C546.511 371.117 546.395 370.079 546.741 369.156L566.809 307.222C567.04 306.761 567.386 306.126 567.847 305.319C568.424 304.512 569.347 304.108 570.615 304.108H572.864C574.825 304.108 576.151 305.088 576.843 307.049L596.911 369.156C597.257 370.079 597.142 371.117 596.565 372.27C595.989 373.423 594.951 374 593.451 374H591.894ZM571.653 319.851C571.077 321.927 570.385 324.234 569.577 326.771C568.885 329.308 568.136 331.788 567.328 334.21C566.636 336.632 565.944 338.939 565.252 341.13C564.56 343.321 563.984 345.167 563.522 346.666H580.13L571.653 319.851ZM685.022 374C680.178 374 676.372 372.558 673.604 369.675C670.836 366.676 669.452 362.582 669.452 357.392V353.413C669.452 352.26 669.741 351.337 670.317 350.645C671.009 349.838 671.932 349.434 673.085 349.434H674.642C675.911 349.434 676.834 349.895 677.41 350.818C677.987 351.625 678.275 352.49 678.275 353.413V357.219C678.275 362.524 680.524 365.177 685.022 365.177H696.267C700.765 365.177 703.014 362.524 703.014 357.219V352.375C703.014 348.454 699.843 345.686 693.499 344.071C691.193 343.61 688.655 343.033 685.887 342.341C683.119 341.649 680.524 340.669 678.102 339.4C675.68 338.131 673.604 336.517 671.874 334.556C670.26 332.48 669.452 329.827 669.452 326.598V320.716C669.452 315.757 670.836 311.778 673.604 308.779C676.372 305.665 680.178 304.108 685.022 304.108H696.267C701.111 304.108 704.86 305.665 707.512 308.779C710.28 311.778 711.664 315.757 711.664 320.716V323.484C711.664 324.407 711.376 325.329 710.799 326.252C710.223 327.175 709.3 327.636 708.031 327.636H706.82C704.283 327.636 703.014 326.252 703.014 323.484V320.716C703.014 315.526 700.765 312.931 696.267 312.931H685.022C680.524 312.931 678.275 315.526 678.275 320.716V326.425C678.275 327.694 678.91 329.02 680.178 330.404C681.447 331.788 683.927 332.884 687.617 333.691C690.27 334.268 692.865 334.902 695.402 335.594C697.94 336.171 700.477 337.093 703.014 338.362C705.436 339.631 707.455 341.361 709.069 343.552C710.799 345.743 711.664 348.569 711.664 352.029V357.392C711.664 362.582 710.28 366.676 707.512 369.675C704.86 372.558 701.111 374 696.267 374H685.022Z" fill="#FFDDDD"/>
</g>
<defs>
<filter id="filter0_d_118_3" x="5.44067" y="304.108" width="710.224" height="73.892" filterUnits="userSpaceOnUse" color-interpolation-filters="sRGB">
<feFlood flood-opacity="0" result="BackgroundImageFix"/>
<feColorMatrix in="SourceAlpha" type="matrix" values="0 0 0 0 0 0 0 0 0 0 0 0 0 0 0 0 0 0 127 0" result="hardAlpha"/>
<feOffset dx="2" dy="2"/>
<feGaussianBlur stdDeviation="1"/>
<feComposite in2="hardAlpha" operator="out"/>
<feColorMatrix type="matrix" values="0 0 0 0 0 0 0 0 0 0 0 0 0 0 0 0 0 0 1 0"/>
<feBlend mode="normal" in2="BackgroundImageFix" result="effect1_dropShadow_118_3"/>
<feBlend mode="normal" in="SourceGraphic" in2="effect1_dropShadow_118_3" result="shape"/>
</filter>
</defs>
</svg>
