<svg width="145" height="145" viewBox="0 0 145 145" fill="none" xmlns="http://www.w3.org/2000/svg">
<g clip-path="url(#clip0_39_5)">
<rect width="145" height="145" fill="#362626"/>
<rect width="750" height="750" fill="#7C0404"/>
<g filter="url(#filter0_d_39_5)">
<path d="M52.6531 15H53.6531V36.6C53.6531 38.3333 53.7865 40 54.0531 41.6C54.3198 43.1333 54.7198 44.5667 55.2531 45.9L61.8531 61.9C62.5198 63.6333 63.2531 65.1 64.0531 66.3C64.9198 67.4333 66.2865 68 68.1531 68H76.9531C78.8198 68 80.1531 67.4333 80.9531 66.3C81.8198 65.1 82.5865 63.6333 83.2531 61.9L89.8531 45.9C90.3865 44.5667 90.7865 43.1333 91.0531 41.6C91.3198 40 91.4531 38.3333 91.4531 36.6V15H92.4531V36.6C92.4531 38.4667 92.3198 40.2 92.0531 41.8C91.8531 43.3333 91.4531 44.8333 90.8531 46.3L84.2531 62.3C83.4531 64.2333 82.5531 65.8333 81.5531 67.1C80.5531 68.3667 79.0198 69 76.9531 69H68.1531C66.0865 69 64.5531 68.3667 63.5531 67.1C62.5531 65.8333 61.6531 64.2333 60.8531 62.3L54.2531 46.3C53.6531 44.8333 53.2198 43.3333 52.9531 41.8C52.7531 40.2 52.6531 38.4667 52.6531 36.6V15ZM52.9531 105.7V108.8H91.9531V105.7C91.9531 103.9 91.7865 102.233 91.4531 100.7C91.1865 99.1667 90.8198 97.7333 90.3531 96.4L83.4531 80.1C82.7198 78.3667 81.9531 76.9333 81.1531 75.8C80.3531 74.6 79.0198 74 77.1531 74H67.3531C65.3531 74 63.9531 74.6 63.1531 75.8C62.3531 76.9333 61.6198 78.3333 60.9531 80L54.5531 96.4C54.0865 97.7333 53.6865 99.1667 53.3531 100.7C53.0865 102.233 52.9531 103.9 52.9531 105.7ZM91.9531 127V109.8H52.9531V127H51.9531V105.7C51.9531 103.833 52.0865 102.133 52.3531 100.6C52.6865 99 53.1198 97.4667 53.6531 96L60.0531 79.6C60.7865 77.7333 61.6198 76.1667 62.5531 74.9C63.4865 73.6333 65.0865 73 67.3531 73H77.1531C79.3531 73 80.8865 73.6333 81.7531 74.9C82.6865 76.1667 83.5531 77.7667 84.3531 79.7L91.2531 96C91.7865 97.4667 92.1865 99 92.4531 100.6C92.7865 102.133 92.9531 103.833 92.9531 105.7V127H91.9531Z" fill="white"/>
</g>
</g>
<defs>
<filter id="filter0_d_39_5" x="47.9531" y="15" width="49" height="120" filterUnits="userSpaceOnUse" color-interpolation-filters="sRGB">
<feFlood flood-opacity="0" result="BackgroundImageFix"/>
<feColorMatrix in="SourceAlpha" type="matrix" values="0 0 0 0 0 0 0 0 0 0 0 0 0 0 0 0 0 0 127 0" result="hardAlpha"/>
<feOffset dy="4"/>
<feGaussianBlur stdDeviation="2"/>
<feComposite in2="hardAlpha" operator="out"/>
<feColorMatrix type="matrix" values="0 0 0 0 0 0 0 0 0 0 0 0 0 0 0 0 0 0 1 0"/>
<feBlend mode="normal" in2="BackgroundImageFix" result="effect1_dropShadow_39_5"/>
<feBlend mode="normal" in="SourceGraphic" in2="effect1_dropShadow_39_5" result="shape"/>
</filter>
<clipPath id="clip0_39_5">
<rect width="145" height="145" fill="white"/>
</clipPath>
</defs>
</svg>
