<svg width="163" height="93" viewBox="0 0 163 93" fill="none" xmlns="http://www.w3.org/2000/svg">
<g filter="url(#filter0_d_2_19)">
<path d="M91.4515 16.496C91.3955 16.636 91.3255 16.762 91.2415 16.874C91.1575 16.958 91.0455 17 90.9055 17H90.3175C90.0655 17 89.8975 16.888 89.8135 16.664C89.8135 16.608 89.7995 16.58 89.7715 16.58C89.7715 16.552 89.7715 16.524 89.7715 16.496L85.2775 0.704C85.2215 0.564 85.2215 0.423999 85.2775 0.283999C85.3615 0.115999 85.5155 0.0319994 85.7395 0.0319994H86.1175C86.2855 0.0319994 86.3975 0.0879995 86.4535 0.2C86.5095 0.284 86.5655 0.395999 86.6215 0.535999L90.6115 14.228L94.5175 0.619999L94.6435 0.367999V0.283999L94.6855 0.241999L94.7695 0.157999C94.8255 0.0739993 94.9235 0.0319994 95.0635 0.0319994H95.4835C95.7075 0.0319994 95.8475 0.115999 95.9035 0.283999C95.9595 0.423999 95.9595 0.564 95.9035 0.704L91.4515 16.496ZM120.967 17H115.339C115.003 17 114.835 16.804 114.835 16.412V0.661999C114.835 0.241999 115.003 0.0319994 115.339 0.0319994H120.967C122.031 0.0319994 122.857 0.381999 123.445 1.082C124.061 1.782 124.369 2.72 124.369 3.896V13.136C124.369 14.396 124.075 15.362 123.487 16.034C122.899 16.678 122.059 17 120.967 17ZM122.983 3.896C122.983 2.328 122.311 1.544 120.967 1.544H116.263V15.488H120.967C122.311 15.488 122.983 14.69 122.983 13.094V3.896ZM156.419 17H156.083C155.719 17 155.537 16.804 155.537 16.412V3.56L151.463 13.094C151.323 13.346 151.099 13.472 150.791 13.472H150.413C150.105 13.472 149.895 13.346 149.783 13.094L145.709 3.476V16.412C145.709 16.552 145.667 16.692 145.583 16.832C145.499 16.944 145.359 17 145.163 17H144.827C144.435 17 144.239 16.804 144.239 16.412V0.661999C144.239 0.241999 144.435 0.0319994 144.827 0.0319994H145.457C145.709 0.0319994 145.877 0.143999 145.961 0.367999L150.623 11.288L155.201 0.367999C155.285 0.143999 155.467 0.0319994 155.747 0.0319994H156.419C156.615 0.0319994 156.755 0.101999 156.839 0.241999C156.923 0.381999 156.965 0.521999 156.965 0.661999V16.412C156.965 16.552 156.923 16.692 156.839 16.832C156.755 16.944 156.615 17 156.419 17ZM55.0408 41H54.6628C54.4948 41 54.3688 40.944 54.2848 40.832C54.2008 40.72 54.1308 40.58 54.0748 40.412L52.8148 36.464H46.7668L45.4228 40.496C45.2828 40.832 45.0868 41 44.8348 41H44.5408C44.3448 41 44.1908 40.916 44.0788 40.748C43.9948 40.58 43.9808 40.412 44.0368 40.244L48.9088 24.62L49.0348 24.368C49.0628 24.34 49.0768 24.326 49.0768 24.326C49.0768 24.298 49.0908 24.27 49.1188 24.242C49.2308 24.102 49.3568 24.032 49.4968 24.032H50.0428C50.3228 24.032 50.5328 24.2 50.6728 24.536L55.5448 40.244C55.6008 40.412 55.5728 40.58 55.4608 40.748C55.3768 40.916 55.2368 41 55.0408 41ZM49.7488 26.3C49.3008 28.008 48.8528 29.604 48.4048 31.088C47.9848 32.572 47.6208 33.818 47.3128 34.826H52.2688L49.7488 26.3ZM84.16 41H83.908C83.684 41 83.488 40.874 83.32 40.622L76.348 27.476V40.412C76.348 40.552 76.292 40.692 76.18 40.832C76.096 40.944 75.956 41 75.76 41H75.466C75.074 41 74.878 40.804 74.878 40.412V24.662C74.878 24.242 75.074 24.032 75.466 24.032H75.76C76.04 24.032 76.18 24.116 76.18 24.284L83.32 37.472V24.662C83.32 24.522 83.348 24.382 83.404 24.242C83.488 24.102 83.628 24.032 83.824 24.032H84.16C84.356 24.032 84.496 24.102 84.58 24.242C84.664 24.382 84.706 24.522 84.706 24.662V40.412C84.706 40.552 84.664 40.692 84.58 40.832C84.496 40.944 84.356 41 84.16 41ZM112.558 25.544H109.24V40.412C109.24 40.552 109.184 40.692 109.072 40.832C108.988 40.944 108.848 41 108.652 41H108.4C108.204 41 108.064 40.944 107.98 40.832C107.896 40.692 107.854 40.552 107.854 40.412V25.544H104.494C104.354 25.544 104.228 25.502 104.116 25.418C104.004 25.334 103.948 25.18 103.948 24.956V24.62C103.948 24.228 104.13 24.032 104.494 24.032H112.558C112.922 24.032 113.104 24.228 113.104 24.62V24.956C113.104 25.348 112.922 25.544 112.558 25.544ZM132.751 41H132.415C132.275 41 132.163 40.93 132.079 40.79C131.995 40.65 131.953 40.51 131.953 40.37V24.662C131.953 24.242 132.107 24.032 132.415 24.032H132.751C133.115 24.032 133.297 24.242 133.297 24.662V40.37C133.297 40.79 133.115 41 132.751 41ZM6.21713 65H0.589131C0.253131 65 0.0851306 64.804 0.0851306 64.412V48.662C0.0851306 48.242 0.253131 48.032 0.589131 48.032H6.21713C7.28113 48.032 8.10713 48.382 8.69513 49.082C9.31113 49.782 9.61913 50.72 9.61913 51.896V61.136C9.61913 62.396 9.32513 63.362 8.73713 64.034C8.14913 64.678 7.30913 65 6.21713 65ZM8.23313 51.896C8.23313 50.328 7.56113 49.544 6.21713 49.544H1.51313V63.488H6.21713C7.56113 63.488 8.23313 62.69 8.23313 61.094V51.896ZM21.3824 65H21.0464C20.9064 65 20.7944 64.93 20.7104 64.79C20.6264 64.65 20.5844 64.51 20.5844 64.37V48.662C20.5844 48.242 20.7384 48.032 21.0464 48.032H21.3824C21.7464 48.032 21.9284 48.242 21.9284 48.662V64.37C21.9284 64.79 21.7464 65 21.3824 65ZM38.5302 65H35.8002C34.7082 65 33.8682 64.678 33.2802 64.034C32.6922 63.362 32.3982 62.396 32.3982 61.136V60.17C32.3982 59.722 32.5662 59.498 32.9022 59.498H33.2802C33.6442 59.498 33.8262 59.722 33.8262 60.17V61.094C33.8262 62.69 34.4842 63.488 35.8002 63.488H38.5302C39.8742 63.488 40.5462 62.69 40.5462 61.094V59.918C40.5462 59.302 40.3082 58.784 39.8322 58.364C39.3562 57.944 38.7262 57.636 37.9422 57.44C37.3262 57.3 36.7102 57.16 36.0942 57.02C35.4782 56.852 34.8902 56.614 34.3302 56.306C33.7702 55.998 33.3082 55.62 32.9442 55.172C32.5802 54.696 32.3982 54.094 32.3982 53.366V51.896C32.3982 50.72 32.6922 49.782 33.2802 49.082C33.8962 48.382 34.7362 48.032 35.8002 48.032H38.5302C39.5942 48.032 40.4202 48.382 41.0082 49.082C41.6242 49.782 41.9322 50.72 41.9322 51.896V52.568C41.9322 53.044 41.7502 53.282 41.3862 53.282H41.0922C40.7282 53.282 40.5462 53.044 40.5462 52.568V51.896C40.5462 50.328 39.8742 49.544 38.5302 49.544H35.8002C34.4842 49.544 33.8262 50.328 33.8262 51.896V53.324C33.8262 53.8 34.0082 54.234 34.3722 54.626C34.7362 54.99 35.3942 55.284 36.3462 55.508C36.9902 55.648 37.6062 55.802 38.1942 55.97C38.8102 56.11 39.4122 56.348 40.0002 56.684C40.5602 56.992 41.0222 57.398 41.3862 57.902C41.7502 58.378 41.9322 59.022 41.9322 59.834V61.136C41.9322 62.396 41.6382 63.362 41.0502 64.034C40.4622 64.678 39.6222 65 38.5302 65ZM53.1351 65H52.7991C52.6591 65 52.5471 64.93 52.4631 64.79C52.3791 64.65 52.3371 64.51 52.3371 64.37V48.662C52.3371 48.242 52.4911 48.032 52.7991 48.032H53.1351C53.4991 48.032 53.6811 48.242 53.6811 48.662V64.37C53.6811 64.79 53.4991 65 53.1351 65ZM73.8109 65H73.5589C73.3349 65 73.1389 64.874 72.9709 64.622L65.9989 51.476V64.412C65.9989 64.552 65.9429 64.692 65.8309 64.832C65.7469 64.944 65.6069 65 65.4109 65H65.1169C64.7249 65 64.5289 64.804 64.5289 64.412V48.662C64.5289 48.242 64.7249 48.032 65.1169 48.032H65.4109C65.6909 48.032 65.8309 48.116 65.8309 48.284L72.9709 61.472V48.662C72.9709 48.522 72.9989 48.382 73.0549 48.242C73.1389 48.102 73.2789 48.032 73.4749 48.032H73.8109C74.0069 48.032 74.1469 48.102 74.2309 48.242C74.3149 48.382 74.3569 48.522 74.3569 48.662V64.412C74.3569 64.552 74.3149 64.692 74.2309 64.832C74.1469 64.944 74.0069 65 73.8109 65ZM92.6751 49.544H86.7951V55.844H92.0871C92.1991 55.844 92.3111 55.9 92.4231 56.012C92.5631 56.096 92.6331 56.222 92.6331 56.39V56.684C92.6331 56.936 92.5631 57.104 92.4231 57.188C92.3111 57.272 92.1991 57.314 92.0871 57.314H86.7951V64.412C86.7951 64.552 86.7531 64.692 86.6691 64.832C86.5851 64.944 86.4451 65 86.2491 65H85.9551C85.5911 65 85.4091 64.804 85.4091 64.412V48.662C85.4091 48.494 85.4511 48.354 85.5351 48.242C85.6191 48.102 85.7591 48.032 85.9551 48.032H92.6751C93.0391 48.032 93.2211 48.228 93.2211 48.62V48.956C93.2211 49.152 93.1511 49.306 93.0111 49.418C92.8991 49.502 92.7871 49.544 92.6751 49.544ZM109.711 65H106.855C105.791 65 104.965 64.678 104.377 64.034C103.789 63.362 103.495 62.396 103.495 61.136V51.896C103.495 50.72 103.789 49.782 104.377 49.082C104.965 48.382 105.791 48.032 106.855 48.032H109.711C110.775 48.032 111.615 48.382 112.231 49.082C112.847 49.782 113.155 50.72 113.155 51.896V61.136C113.155 62.396 112.847 63.362 112.231 64.034C111.643 64.678 110.803 65 109.711 65ZM111.727 51.896C111.727 50.328 111.055 49.544 109.711 49.544H106.855C105.539 49.544 104.881 50.328 104.881 51.896V61.094C104.881 62.69 105.539 63.488 106.855 63.488H109.711C111.055 63.488 111.727 62.69 111.727 61.094V51.896ZM49.9831 82.784H45.7411V88.412C45.7411 88.552 45.6991 88.692 45.6151 88.832C45.5311 88.944 45.3911 89 45.1951 89H44.8591C44.4951 89 44.3131 88.804 44.3131 88.412V72.662C44.3131 72.242 44.4951 72.032 44.8591 72.032H49.9831C51.0471 72.032 51.8731 72.382 52.4611 73.082C53.0491 73.754 53.3431 74.692 53.3431 75.896V78.92C53.3431 80.096 53.0491 81.034 52.4611 81.734C51.8731 82.434 51.0471 82.784 49.9831 82.784ZM51.9991 75.896C51.9991 74.328 51.3271 73.544 49.9831 73.544H45.7411V81.23H49.9831C50.6271 81.23 51.1171 81.048 51.4531 80.684C51.8171 80.292 51.9991 79.69 51.9991 78.878V75.896ZM70.846 89H70.384C70.104 89 69.922 88.888 69.838 88.664L67.15 82.196H63.412V88.412C63.412 88.804 63.202 89 62.782 89H62.53C62.39 89 62.25 88.972 62.11 88.916C61.998 88.832 61.942 88.664 61.942 88.412V72.62C61.942 72.228 62.138 72.032 62.53 72.032H67.57C68.662 72.032 69.502 72.368 70.09 73.04C70.706 73.684 71.014 74.636 71.014 75.896V78.332C71.014 79.256 70.818 80.026 70.426 80.642C70.062 81.23 69.446 81.72 68.578 82.112L71.224 88.202C71.252 88.314 71.266 88.482 71.266 88.706C71.294 88.902 71.154 89 70.846 89ZM69.628 75.896C69.628 74.3 68.942 73.502 67.57 73.502H63.412V80.684H67.57C68.942 80.684 69.628 79.9 69.628 78.332V75.896ZM85.7878 89H82.9318C81.8678 89 81.0418 88.678 80.4538 88.034C79.8658 87.362 79.5718 86.396 79.5718 85.136V75.896C79.5718 74.72 79.8658 73.782 80.4538 73.082C81.0418 72.382 81.8678 72.032 82.9318 72.032H85.7878C86.8518 72.032 87.6918 72.382 88.3078 73.082C88.9238 73.782 89.2318 74.72 89.2318 75.896V85.136C89.2318 86.396 88.9238 87.362 88.3078 88.034C87.7198 88.678 86.8798 89 85.7878 89ZM87.8038 75.896C87.8038 74.328 87.1318 73.544 85.7878 73.544H82.9318C81.6158 73.544 80.9578 74.328 80.9578 75.896V85.094C80.9578 86.69 81.6158 87.488 82.9318 87.488H85.7878C87.1318 87.488 87.8038 86.69 87.8038 85.094V75.896ZM102.734 89H100.508C99.4438 89 98.6178 88.678 98.0298 88.034C97.4698 87.362 97.1898 86.396 97.1898 85.136V83.12C97.1898 82.98 97.2318 82.854 97.3158 82.742C97.3998 82.602 97.5118 82.532 97.6518 82.532H97.9878C98.3518 82.532 98.5338 82.728 98.5338 83.12V85.094C98.5338 86.69 99.1918 87.488 100.508 87.488H102.734C104.106 87.488 104.792 86.69 104.792 85.094V72.662C104.792 72.522 104.82 72.382 104.876 72.242C104.96 72.102 105.1 72.032 105.296 72.032H105.632C105.996 72.032 106.178 72.228 106.178 72.62V85.136C106.178 86.396 105.87 87.362 105.254 88.034C104.666 88.678 103.826 89 102.734 89ZM122.355 89H115.635C115.299 89 115.131 88.804 115.131 88.412V72.662C115.131 72.242 115.299 72.032 115.635 72.032H122.355C122.719 72.032 122.901 72.228 122.901 72.62V72.956C122.901 73.152 122.831 73.306 122.691 73.418C122.579 73.502 122.467 73.544 122.355 73.544H116.475V79.592H121.809C121.921 79.592 122.033 79.648 122.145 79.76C122.285 79.844 122.355 79.998 122.355 80.222V80.516C122.355 80.908 122.173 81.104 121.809 81.104H116.475V87.488H122.355C122.719 87.488 122.901 87.684 122.901 88.076V88.412C122.901 88.608 122.831 88.762 122.691 88.874C122.579 88.958 122.467 89 122.355 89ZM137.951 89H134.969C133.877 89 133.037 88.678 132.449 88.034C131.861 87.362 131.567 86.396 131.567 85.136V75.896C131.567 74.72 131.861 73.782 132.449 73.082C133.065 72.382 133.905 72.032 134.969 72.032H137.951C139.015 72.032 139.841 72.382 140.429 73.082C141.045 73.782 141.353 74.72 141.353 75.896V77.03C141.353 77.226 141.311 77.394 141.227 77.534C141.143 77.674 141.003 77.744 140.807 77.744H140.513C140.149 77.744 139.967 77.506 139.967 77.03V75.896C139.967 74.328 139.295 73.544 137.951 73.544H134.969C133.653 73.544 132.995 74.328 132.995 75.896V85.094C132.995 86.69 133.653 87.488 134.969 87.488H137.951C139.295 87.488 139.967 86.69 139.967 85.094V83.96C139.967 83.54 140.149 83.33 140.513 83.33H140.807C140.975 83.33 141.101 83.4 141.185 83.54C141.297 83.68 141.353 83.82 141.353 83.96V85.136C141.353 86.396 141.059 87.362 140.471 88.034C139.883 88.678 139.043 89 137.951 89ZM157.623 73.544H154.305V88.412C154.305 88.552 154.249 88.692 154.137 88.832C154.053 88.944 153.913 89 153.717 89H153.465C153.269 89 153.129 88.944 153.045 88.832C152.961 88.692 152.919 88.552 152.919 88.412V73.544H149.559C149.419 73.544 149.293 73.502 149.181 73.418C149.069 73.334 149.013 73.18 149.013 72.956V72.62C149.013 72.228 149.195 72.032 149.559 72.032H157.623C157.987 72.032 158.169 72.228 158.169 72.62V72.956C158.169 73.348 157.987 73.544 157.623 73.544Z" fill="#FFDDDD"/>
</g>
<defs>
<filter id="filter0_d_2_19" x="0.085144" y="0.0319824" width="162.084" height="92.968" filterUnits="userSpaceOnUse" color-interpolation-filters="sRGB">
<feFlood flood-opacity="0" result="BackgroundImageFix"/>
<feColorMatrix in="SourceAlpha" type="matrix" values="0 0 0 0 0 0 0 0 0 0 0 0 0 0 0 0 0 0 127 0" result="hardAlpha"/>
<feOffset dx="2" dy="2"/>
<feGaussianBlur stdDeviation="1"/>
<feComposite in2="hardAlpha" operator="out"/>
<feColorMatrix type="matrix" values="0 0 0 0 0 0 0 0 0 0 0 0 0 0 0 0 0 0 1 0"/>
<feBlend mode="normal" in2="BackgroundImageFix" result="effect1_dropShadow_2_19"/>
<feBlend mode="normal" in="SourceGraphic" in2="effect1_dropShadow_2_19" result="shape"/>
</filter>
</defs>
</svg>
